<?xml version="1.0" encoding="UTF-8" standalone="no"?>

<svg
   version="1.1"
   id="svg663"
   width="4908.7144"
   height="2249.699"
   viewBox="0 0 4908.7143 2249.699"
   xmlns="http://www.w3.org/2000/svg"
   xmlns:svg="http://www.w3.org/2000/svg">
  <defs
     id="defs667" />
  <g
     id="g671"
     transform="matrix(1.3333333,0,0,-1.3333333,-291.91377,3298.6369)">
    <g
       id="g673"
       transform="scale(0.1)">
      <path
         d="m 4346.51,24552.8 c 305.88,-180.6 309.86,-563.3 143.74,-879.2 -166.12,-316 -1193.13,-1053.3 -792.29,-2437.4 400.83,-1384.2 3986.83,-2348.9 5450.8,-2441 1463.94,-92.1 2803.74,860.3 5157.74,860.3 2354.1,0 3838.2,-1624.1 5319.7,-1624.1 1481.4,0 2360,787 3244.2,920.2 589.4,88.7 1063.7,-15 1422.8,-311.2 678.7,43.7 1044,43.7 1095.7,0 51.7,-43.6 -27.9,-211 -238.8,-502 545.6,-150.7 847.6,-260 906,-327.6 58.4,-67.7 -224.2,-240.1 -848,-517.3 7.6,-314.3 -11.8,-580.1 -58,-797.4 -69.4,-326.1 -66.8,-153.9 -247.9,-639.9 -181.1,-486 -19.9,-757.2 -353.3,-973.6 -333.4,-216.4 -901.4,-112.3 -1146.7,0 -163.5,74.8 -340.8,177.5 -531.8,308 l -727.7,-1736.3 c -155.3,-499.8 -93,-937.6 186.8,-1313.6 419.7,-564 3188.6,-2338.7 3527.6,-2706.23 339.1,-367.57 249,-829.5 -179.9,-922.88 -429,-93.38 -970.5,304.62 -1384,582.44 -413.5,277.83 -3031.3,1906.67 -3926.8,2620.37 -334.5,266.6 -544.7,714.4 -800.9,1025.3 -134,162.5 -339.2,367 -615.7,613.4 262.9,-654.9 314.7,-1201.1 155.5,-1638.7 -238.8,-656.4 -1002.3,-1281.8 -1235.5,-1452.6 -233.3,-170.8 -568.4,-124.4 -754.4,169.2 -185.9,293.6 -107.7,590.8 130.8,815.5 238.5,224.8 916,652.4 823.3,894.2 -43.2,112.7 -353.6,408.7 -695.1,948.9 -97.7,154.6 -232.5,436.2 -404.3,844.7 -675.8,214.8 -1380.9,330.6 -2115.2,347.3 -734.3,16.7 -1467.7,-66.3 -2200.2,-249 -179.3,-302 -440.8,-697.6 -784.6,-1186.8 -343.9,-489.3 -706.3,-981.6 -1087.2,-1476.9 316.1,-439.4 552.2,-719.9 708.3,-841.8 234.2,-182.7 511,-117.2 710.3,-265.3 199.3,-148.2 199.3,-413.4 110.9,-525.4 -88.3,-111.91 -496.2,-267.96 -1073.8,-111.99 -385.2,103.99 -981.7,685.49 -1789.62,1744.49 -443.16,-235.8 -762.46,-400.1 -957.9,-493 -357.49,-169.8 -722.93,-254 -910.67,-444.9 -512.56,-521.3 -368.22,-1200.67 -368.22,-1336.97 0,-136.29 466.78,-136.29 546.46,-475.17 79.68,-338.89 56.78,-484.06 -290.01,-615.58 -346.78,-131.51 -960.36,122.76 -1191.84,508.31 -231.48,385.55 -141.14,2341.31 189.41,2959.71 330.56,618.2 1526.6,1734.2 1803.7,2139.5 221.17,323.5 -93.14,1267.6 -59.52,2245.4 12.16,353.6 105.72,832.7 280.69,1437.3 -3578.36,752.7 -5586.42,1860.2 -6024.18,3322.7 -656.64,2193.6 696.64,3416.3 922.78,3707.1 226.14,290.9 650.95,410.1 956.83,229.5 z"
         style="fill:none;stroke:#cccccc;stroke-width:170.079;stroke-linecap:square;stroke-linejoin:round;stroke-miterlimit:0.9;stroke-dasharray:none;stroke-opacity:1;paint-order:fill markers stroke"
         id="path677" />
      <g
         id="g4322"
         transform="rotate(-0.88009603,24412.257,18936.025)">
        <path
           d="m 27863.284,9028.5238 c 865.745,167.3477 1905.269,434.4538 2321.742,523.1703 856.969,182.5498 1860.935,356.9986 2871.084,345.5067 1979.601,81.6009 4046.125,-1076.7043 5242.176,-925.8249"
           style="fill:none;stroke:#cccccc;stroke-width:154.955;stroke-linecap:round;stroke-linejoin:round;stroke-miterlimit:10;stroke-dasharray:none;stroke-opacity:1"
           id="path679" />
        <path
           d="m 27679.5,9408.29 59,5.36 h 21.5 l 320.34,14.3513 83.2,8.04 42.9,2.69 240.26,-3.6113 24.2,-2.69 h 32.2 l 34.8,-2.68 h 56.4 l 13.4,-2.68 h 24.1 l 18.8,-2.68 h 85.9 l 50.9,-2.69 13.4,-2.68 h 32.2 l 53.7,-5.37 h 18.8 l 26.8,-2.68 h 144.9 l 16.1,-2.68 h 24.1 l 178.2,-31.43"
           style="fill:none;stroke:#cccccc;stroke-width:170.079;stroke-linecap:round;stroke-linejoin:round;stroke-miterlimit:10;stroke-dasharray:none;stroke-opacity:1"
           id="path681" />
        <path
           d="m 27986.9,8542.54 c 409.2,267.87 818.5,535.74 1227.7,803.61"
           style="fill:none;stroke:#cccccc;stroke-width:170.079;stroke-linecap:round;stroke-linejoin:round;stroke-miterlimit:10;stroke-dasharray:none;stroke-opacity:1"
           id="path683" />
        <path
           d="m 28081.022,9828.0483 c 519.59,-260.5283 759.983,-265.1853 1594.183,-387.0353"
           style="fill:none;stroke:#cccccc;stroke-width:170.079;stroke-linecap:round;stroke-linejoin:round;stroke-miterlimit:10;stroke-dasharray:none;stroke-opacity:1"
           id="path685" />
        <path
           d="m 28563.538,8505.0946 c 438.528,600.036 635.73,739.7788 1154.722,940.7226"
           style="fill:none;stroke:#cccccc;stroke-width:170.079;stroke-linecap:round;stroke-linejoin:round;stroke-miterlimit:10;stroke-dasharray:none;stroke-opacity:1"
           id="path687" />
      </g>
    </g>
  </g>
</svg>
